<svg width="15" height="14" viewBox="0 0 15 14" fill="none" xmlns="http://www.w3.org/2000/svg">
<path d="M6.28648e-07 7.29167C0.00521483 7.86203 0.232333 8.40734 0.632143 8.80943L5.22857 13.4711C5.42932 13.673 5.70087 13.7864 5.98393 13.7864C6.26698 13.7864 6.53854 13.673 6.73929 13.4711C6.83971 13.3703 6.91942 13.2504 6.97381 13.1183C7.02821 12.9862 7.05621 12.8445 7.05621 12.7014C7.05621 12.5583 7.02821 12.4166 6.97381 12.2845C6.91942 12.1524 6.83971 12.0325 6.73929 11.9317L3.21429 8.37579L13.9286 8.37579C14.2127 8.37579 14.4853 8.26157 14.6862 8.05826C14.8871 7.85495 15 7.5792 15 7.29167C15 7.00415 14.8871 6.7284 14.6862 6.52509C14.4853 6.32178 14.2127 6.20756 13.9286 6.20756L3.21429 6.20756L6.73929 2.64082C6.94104 2.43812 7.05495 2.16262 7.05595 1.87494C7.05696 1.58725 6.94498 1.31095 6.74464 1.1068C6.54431 0.90266 6.27204 0.787401 5.98772 0.786385C5.7034 0.785368 5.43033 0.898677 5.22857 1.10138L0.632143 5.76307C0.229727 6.16783 0.0023929 6.71755 6.28648e-07 7.29167Z" fill="#49454F"/>
</svg>