<svg width="24" height="24" viewBox="0 0 24 24" fill="none" xmlns="http://www.w3.org/2000/svg">
<path d="M5 11.5053C5.00521 12.0757 5.23233 12.621 5.63214 13.0231L10.2286 17.6847C10.4293 17.8867 10.7009 18 10.9839 18C11.267 18 11.5385 17.8867 11.7393 17.6847C11.8397 17.584 11.9194 17.4641 11.9738 17.332C12.0282 17.1998 12.0562 17.0581 12.0562 16.915C12.0562 16.7719 12.0282 16.6302 11.9738 16.4981C11.9194 16.366 11.8397 16.2461 11.7393 16.1453L8.21428 12.5894L18.9286 12.5894C19.2127 12.5894 19.4853 12.4752 19.6862 12.2719C19.8871 12.0686 20 11.7928 20 11.5053C20 11.2178 19.8871 10.942 19.6862 10.7387C19.4853 10.5354 19.2127 10.4212 18.9286 10.4212L8.21428 10.4212L11.7393 6.85444C11.941 6.65174 12.0549 6.37624 12.056 6.08856C12.057 5.80087 11.945 5.52457 11.7446 5.32042C11.5443 5.11628 11.272 5.00102 10.9877 5.00001C10.7034 4.99899 10.4303 5.1123 10.2286 5.315L5.63214 9.9767C5.22973 10.3814 5.00239 10.9312 5 11.5053Z" fill="white"/>
</svg>
