<svg width="24" height="21" viewBox="0 0 24 21" fill="none" xmlns="http://www.w3.org/2000/svg">
<path d="M0.583436 10.7623C0.591553 11.6398 0.945105 12.4787 1.56748 13.0973L8.72263 20.2691C9.03513 20.5798 9.45785 20.7542 9.89848 20.7542C10.3391 20.7542 10.7618 20.5798 11.0743 20.2691C11.2307 20.1141 11.3547 19.9296 11.4394 19.7264C11.5241 19.5231 11.5677 19.3051 11.5677 19.085C11.5677 18.8648 11.5241 18.6468 11.4394 18.4435C11.3547 18.2403 11.2307 18.0558 11.0743 17.9008L5.58704 12.4302L22.2657 12.4302C22.7081 12.4302 23.1323 12.2544 23.4451 11.9417C23.7579 11.6289 23.9336 11.2046 23.9336 10.7623C23.9336 10.32 23.7579 9.89572 23.4451 9.58294C23.1323 9.27015 22.7081 9.09443 22.2657 9.09443L5.58704 9.09443L11.0743 3.60714C11.3884 3.29529 11.5657 2.87145 11.5673 2.42885C11.5688 1.98626 11.3945 1.56118 11.0827 1.24711C10.7708 0.933044 10.347 0.755723 9.90438 0.75416C9.46179 0.752596 9.0367 0.926918 8.72263 1.23877L1.56748 8.4106C0.941048 9.0333 0.58716 9.87903 0.583436 10.7623V10.7623Z" fill="#4A3F69"/>
</svg>
