<svg width="14" height="15" viewBox="0 0 14 15" fill="none" xmlns="http://www.w3.org/2000/svg">
<path d="M6.55629 0.701686C6.81474 0.491442 7.18526 0.491442 7.44371 0.701685L8.29567 1.39474C8.4511 1.52118 8.65309 1.5753 8.85092 1.54352L9.93526 1.3693C10.2642 1.31644 10.5851 1.5017 10.7038 1.813L11.0951 2.83919C11.1665 3.0264 11.3143 3.17427 11.5016 3.24566L12.5277 3.63695C12.839 3.75565 13.0243 4.07653 12.9714 4.40547L12.7972 5.48982C12.7654 5.68765 12.8196 5.88964 12.946 6.04507L13.6391 6.89703C13.8493 7.15548 13.8493 7.526 13.6391 7.78444L12.946 8.6364C12.8196 8.79183 12.7654 8.99383 12.7972 9.19165L12.9714 10.276C13.0243 10.6049 12.839 10.9258 12.5277 11.0445L11.5016 11.4358C11.3143 11.5072 11.1665 11.6551 11.0951 11.8423L10.7038 12.8685C10.5851 13.1798 10.2642 13.365 9.93526 13.3122L8.85092 13.138C8.65309 13.1062 8.4511 13.1603 8.29567 13.2867L7.44371 13.9798C7.18526 14.19 6.81474 14.19 6.55629 13.9798L5.70433 13.2867C5.5489 13.1603 5.34691 13.1062 5.14908 13.138L4.06474 13.3122C3.73579 13.365 3.41491 13.1798 3.29621 12.8685L2.90492 11.8423C2.83353 11.6551 2.68567 11.5072 2.49845 11.4358L1.47227 11.0445C1.16097 10.9258 0.975707 10.6049 1.02856 10.276L1.20278 9.19165C1.23457 8.99383 1.18044 8.79184 1.054 8.6364L0.360949 7.78444C0.150706 7.526 0.150706 7.15548 0.360949 6.89703L1.054 6.04507C1.18044 5.88964 1.23457 5.68765 1.20278 5.48982L1.02856 4.40547C0.975707 4.07653 1.16097 3.75565 1.47227 3.63695L2.49845 3.24566C2.68567 3.17427 2.83353 3.0264 2.90492 2.83919L3.29621 1.813C3.41491 1.5017 3.73579 1.31644 4.06474 1.3693L5.14908 1.54352C5.34691 1.5753 5.5489 1.52118 5.70433 1.39474L6.55629 0.701686Z" fill="#0050FF"/>
<path d="M4.375 7.69074L5.875 9.09074L9.625 5.59074" stroke="white" stroke-width="1.40625" stroke-linecap="round" stroke-linejoin="round"/>
</svg>
