<svg width="24" height="24" viewBox="0 0 24 24" fill="none" xmlns="http://www.w3.org/2000/svg">
<path fill-rule="evenodd" clip-rule="evenodd" d="M12 22C17.5228 22 22 17.5228 22 12C22 6.47715 17.5228 2 12 2C6.47715 2 2 6.47715 2 12C2 17.5228 6.47715 22 12 22ZM7.52043 12.7297L10.1313 15.1007L17.4869 8.42735C17.7541 8.18494 18.1617 8.18503 18.4288 8.42757C18.735 8.70562 18.735 9.18699 18.4288 9.46504L10.1313 17L6.57516 13.7706C6.26722 13.491 6.26807 13.0066 6.57699 12.728C6.84521 12.4862 7.25306 12.4869 7.52043 12.7297Z" fill="white"/>
</svg>
