<?xml version="1.0" standalone="no"?>
<!DOCTYPE svg PUBLIC "-//W3C//DTD SVG 20010904//EN"
 "http://www.w3.org/TR/2001/REC-SVG-20010904/DTD/svg10.dtd">
<svg version="1.0" xmlns="http://www.w3.org/2000/svg"
 width="192.000000pt" height="192.000000pt" viewBox="0 0 192.000000 192.000000"
 preserveAspectRatio="xMidYMid meet">

<g transform="translate(0.000000,192.000000) scale(0.100000,-0.100000)"
fill="rgb(255, 255, 255, 0.4)" stroke="none">
<path d="M950 1379 c-377 -165 -691 -306 -699 -314 -7 -7 -11 -19 -9 -27 3 -7
96 -64 207 -127 149 -84 207 -112 224 -107 12 3 189 150 392 326 204 176 376
320 383 320 14 0 -30 -52 -407 -475 -161 -180 -241 -277 -241 -292 0 -13 59
-118 131 -234 108 -172 135 -210 152 -207 16 2 71 126 309 703 291 702 299
726 257 732 -8 1 -322 -133 -699 -298z"/>
</g>
</svg>
